<svg version="1.1" id="Layer_1" xmlns="http://www.w3.org/2000/svg" xmlns:xlink="http://www.w3.org/1999/xlink" x="0px" y="0px"
	 width="100%" viewBox="0 0 747 217" enable-background="new 0 0 747 217" xml:space="preserve">
<path fill="#020202" opacity="1.000000" stroke="none" 
	d="
M583.000000,218.000000 
	C388.716919,218.000000 194.933853,218.000000 1.075386,218.000000 
	C1.075386,145.735748 1.075386,73.471390 1.075386,1.103518 
	C250.000000,1.103518 499.000000,1.103518 747.978516,1.103518 
	C747.978516,73.399437 747.978516,145.699722 747.978516,218.000000 
	C693.138062,218.000000 638.319031,218.000000 583.000000,218.000000 
M410.278290,186.459213 
	C411.050842,186.717010 411.823364,186.974823 412.886414,187.329559 
	C413.080994,184.879318 413.259705,182.629074 413.443573,180.314117 
	C407.799255,178.840515 402.377808,178.189194 398.582886,183.072723 
	C395.195374,187.431976 398.784912,190.712433 402.889130,194.542587 
	C400.048065,193.815643 398.691589,193.468567 397.060455,193.051208 
	C396.910095,195.532013 396.764984,197.925537 396.627411,200.195419 
	C404.950745,202.435181 410.969482,201.169693 412.708588,196.827362 
	C414.452850,192.472229 412.283783,189.559982 409.064941,186.856964 
	C409.202637,186.662262 409.340332,186.467560 410.278290,186.459213 
M192.724045,113.177559 
	C192.725006,83.689812 192.726089,54.202061 192.726471,24.714310 
	C192.726486,23.548147 193.088852,22.198820 192.623764,21.261703 
	C192.028168,20.061647 190.775162,18.325762 189.785843,18.312763 
	C175.338120,18.122957 160.887131,18.182379 145.838593,18.182379 
	C145.838593,20.468683 145.838608,22.246775 145.838593,24.024864 
	C145.838470,48.514771 145.896652,73.004868 145.815857,97.494507 
	C145.769043,111.687744 139.374405,119.259590 125.855019,119.810173 
	C111.252998,120.404854 96.584915,120.523628 81.990913,119.857857 
	C66.316849,119.142807 60.808086,112.668922 60.794109,97.020462 
	C60.772087,72.363976 60.727364,47.707134 60.857204,23.051310 
	C60.875835,19.514084 60.163525,18.014490 56.216507,18.086481 
	C43.392735,18.320375 30.561293,18.246140 17.734501,18.119139 
	C14.727266,18.089365 13.655323,19.020864 13.672652,22.099363 
	C13.857387,54.915771 13.748647,87.735001 14.144485,120.548347 
	C14.265517,130.581390 18.550781,139.187256 26.239864,145.951645 
	C34.387367,153.119308 44.411453,156.312622 54.668709,156.885925 
	C78.734604,158.230988 102.862656,158.640778 126.971809,158.967285 
	C140.979218,159.156982 154.941360,157.977386 168.287155,153.115082 
	C180.470367,148.676361 188.256302,140.160919 191.050537,127.452507 
	C192.008713,123.094627 192.180176,118.563766 192.724045,113.177559 
M527.033936,23.937389 
	C550.831299,45.210659 574.628601,66.483925 598.660950,87.967232 
	C597.358643,89.172638 596.419739,90.067421 595.453796,90.932083 
	C572.867371,111.150459 550.275391,131.362656 527.694946,151.587692 
	C526.148254,152.973038 523.650330,154.327530 525.893982,156.753815 
	C527.095276,158.052963 529.081909,159.369446 530.732544,159.393066 
	C545.056091,159.598053 559.385864,159.633484 573.708191,159.390121 
	C576.077087,159.349869 578.916870,158.278488 580.694336,156.720154 
	C595.221985,143.983490 609.547852,131.016769 623.938965,118.124344 
	C625.262390,116.938751 626.612488,115.782967 628.017639,114.554382 
	C644.182251,128.932953 659.953735,143.012405 675.819275,156.985092 
	C677.186157,158.188873 679.167847,159.383255 680.877197,159.402542 
	C697.029541,159.584824 713.184814,159.511017 729.202942,159.511017 
	C732.029358,155.851746 730.886475,153.469406 727.712891,150.699585 
	C713.282532,138.105209 699.078552,125.251183 684.808105,112.473923 
	C675.793152,104.402237 666.804504,96.301285 657.617554,88.045868 
	C659.189026,86.585930 660.371338,85.449036 661.594055,84.357399 
	C683.088440,65.166588 704.532654,45.918736 726.149170,26.866323 
	C729.184998,24.190586 730.284973,21.972469 727.265137,18.496611 
	C711.237854,18.496611 694.917419,18.433767 678.599243,18.597773 
	C677.036987,18.613472 675.239624,19.757650 673.974426,20.862364 
	C665.192322,28.530512 656.524841,36.329762 647.815430,44.081165 
	C641.257080,49.918098 634.691162,55.746468 627.986572,61.704880 
	C612.506287,47.925117 597.370667,34.398682 582.136963,20.983597 
	C580.773254,19.782686 578.781799,18.615091 577.068848,18.595999 
	C560.916382,18.415949 544.761047,18.488939 528.482910,18.488939 
	C527.890076,20.126499 527.333862,21.662888 527.033936,23.937389 
M263.500122,18.535822 
	C244.902512,18.535822 226.304901,18.535822 207.594452,18.535822 
	C207.594452,31.724112 207.594452,44.257347 207.594452,56.999527 
	C229.794113,56.999527 251.608994,56.918652 273.422699,57.041332 
	C281.572113,57.087162 289.717560,57.651188 297.867310,57.895657 
	C302.818146,58.044170 305.707062,60.482498 306.165741,65.381844 
	C306.661041,70.672394 307.172760,75.993187 307.126221,81.295944 
	C307.034424,91.767700 306.646942,102.239632 306.210510,112.704353 
	C306.006805,117.588966 302.810211,119.652855 298.273987,119.924957 
	C292.291504,120.283821 286.303833,120.770126 280.316528,120.797478 
	C257.829773,120.900223 235.342300,120.838669 212.855103,120.838676 
	C211.096222,120.838676 209.337341,120.838676 207.458176,120.838676 
	C207.458176,133.962143 207.458176,146.384872 207.458176,159.015274 
	C208.621826,159.184433 209.571655,159.446976 210.520203,159.442413 
	C244.165878,159.280670 277.813873,159.261246 311.454926,158.769592 
	C318.192139,158.671127 325.094391,157.423599 331.586487,155.549103 
	C345.687592,151.477570 353.489410,139.595688 353.825439,121.373741 
	C354.224579,99.727692 354.333527,78.058403 353.802490,56.417976 
	C353.243500,33.638653 342.914856,22.006126 320.386047,20.095543 
	C301.846649,18.523291 283.135284,18.978737 263.500122,18.535822 
M516.350769,71.787178 
	C514.703613,71.020676 513.058228,69.588959 511.409027,69.584595 
	C465.747925,69.463646 420.086426,69.485725 374.425018,69.496567 
	C372.969727,69.496910 371.514465,69.628532 370.197449,69.692261 
	C370.197449,88.693344 369.636932,107.352539 370.403412,125.957062 
	C370.878662,137.492844 375.477234,147.669037 386.723999,153.325867 
	C395.591644,157.786057 405.241089,158.783478 414.876099,158.901733 
	C447.367767,159.300537 479.863892,159.341858 512.358398,159.493774 
	C513.604919,159.499603 514.852722,159.236221 515.991943,159.110229 
	C515.991943,146.151810 515.991943,133.599579 515.991943,120.832718 
	C510.312378,120.832718 504.995850,120.871033 499.680054,120.826134 
	C475.688507,120.623482 451.694641,120.534866 427.707001,120.105522 
	C419.221344,119.953629 417.109680,117.206772 417.269165,108.093262 
	C450.177887,108.093262 483.098297,108.093262 516.356445,108.093262 
	C516.356445,96.002937 516.356445,84.371437 516.350769,71.787178 
M374.459106,37.110565 
	C372.650269,43.521503 370.841431,49.932438 368.917572,56.750988 
	C418.923828,56.750988 467.494568,56.750988 516.004395,56.750988 
	C516.004395,43.946342 516.004395,31.393686 516.004395,18.662916 
	C514.688538,18.593653 513.706299,18.497000 512.724060,18.496832 
	C488.903564,18.492760 465.081451,18.335703 441.263184,18.568445 
	C428.287323,18.695240 415.272186,18.975134 402.359344,20.131020 
	C390.885681,21.158081 380.689636,25.421366 374.459106,37.110565 
M514.743225,179.511505 
	C512.815796,179.511505 510.888336,179.511505 508.607300,179.511505 
	C507.986877,187.059494 507.412170,194.051086 506.843658,200.967529 
	C509.677765,200.967529 511.794128,200.967529 514.023315,200.967529 
	C514.413818,198.704544 514.770996,196.634766 515.146973,194.456131 
	C520.957642,201.428040 520.957642,201.428040 526.970825,200.769150 
	C527.601135,193.847107 528.237366,186.859879 528.884155,179.756409 
	C526.063660,179.756409 523.809631,179.756409 521.413391,179.756409 
	C521.153381,182.085159 520.923950,184.139862 520.605042,186.996063 
	C518.628784,184.155426 517.064575,181.906998 514.743225,179.511505 
M454.516785,201.187103 
	C460.181580,202.050552 456.780853,196.533340 458.841583,194.822372 
	C464.938507,201.792740 464.938507,201.792740 470.628754,200.385208 
	C471.179932,193.601196 471.737823,186.734055 472.314117,179.640717 
	C469.525940,179.640717 467.416046,179.640717 465.208252,179.640717 
	C464.791962,181.853607 464.403320,183.919601 463.825592,186.990662 
	C461.014740,181.899414 458.601135,177.144501 452.126221,180.144608 
	C451.527435,186.955429 450.921661,193.845428 450.294891,200.974716 
	C451.688049,201.063599 452.656281,201.125366 454.516785,201.187103 
M264.011505,180.862915 
	C263.427307,187.446335 262.843140,194.029739 262.236389,200.867493 
	C264.913635,200.867493 267.292938,200.867493 269.648956,200.867493 
	C269.949463,198.570663 270.208832,196.588348 270.468201,194.606049 
	C273.284943,199.222015 275.993958,203.017120 282.524200,200.546921 
	C283.084808,193.857590 283.671295,186.859589 284.275665,179.648087 
	C281.486298,179.648087 279.381287,179.648087 277.146118,179.648087 
	C276.736298,181.865219 276.355286,183.926437 275.791840,186.974564 
	C272.987396,181.891556 270.565460,177.158630 264.011505,180.862915 
M637.993103,188.070206 
	C639.189087,179.744202 632.978699,178.270264 619.873962,180.083115 
	C619.258118,187.017044 618.636230,194.018906 618.007202,201.101028 
	C621.876160,201.001053 626.040955,202.944916 626.393494,195.407883 
	C628.497986,203.088181 632.952515,200.967850 637.277588,200.991455 
	C636.050049,198.191437 635.014160,195.828598 634.114563,193.776535 
	C635.497925,191.962814 636.683167,190.408798 637.993103,188.070206 
M308.112946,200.354782 
	C310.444183,200.720535 312.775421,201.086288 315.410339,201.499695 
	C315.728455,199.496231 315.946411,198.123520 316.164398,196.750824 
	C317.911865,203.184814 322.748932,200.963501 327.277649,201.007660 
	C326.094055,198.270370 325.065826,195.892334 323.910767,193.221069 
	C327.924805,191.129532 329.162994,187.598267 327.656342,183.584030 
	C326.086823,179.402328 322.130127,179.408386 318.380951,179.457230 
	C315.633636,179.493011 312.885498,179.464233 310.039978,179.464233 
	C309.354126,186.559570 308.731750,192.998550 308.112946,200.354782 
M72.014496,184.043427 
	C67.569427,176.192902 60.323650,180.742416 54.134129,179.362701 
	C53.445446,186.889389 52.816700,193.761047 52.163780,200.896927 
	C54.889835,200.896927 57.281094,200.896927 59.661201,200.896927 
	C59.873131,199.310089 60.047459,198.004776 60.221790,196.699478 
	C60.380146,196.748474 60.538498,196.797470 60.974209,196.932281 
	C62.334332,202.971222 66.861145,201.134628 71.370544,200.889282 
	C70.151489,198.104767 69.121902,195.753052 68.092323,193.401321 
	C68.578743,193.499435 69.065163,193.597534 69.551582,193.695633 
	C70.420540,190.746811 71.289490,187.797989 72.014496,184.043427 
M654.527100,201.051651 
	C661.843689,198.288361 665.292969,192.699554 663.423157,186.637390 
	C661.686890,181.008148 656.458191,178.222046 650.369751,179.681946 
	C644.122681,181.179916 640.120911,186.916077 641.044434,193.049118 
	C641.902954,198.750778 646.495178,201.674728 654.527100,201.051651 
M236.416168,191.409454 
	C237.893890,199.400070 242.626175,202.791977 250.145935,201.008118 
	C254.689713,199.930252 257.835510,197.004974 258.962097,192.456360 
	C259.982330,188.337143 259.163910,184.460373 255.686020,181.623978 
	C252.101547,178.700653 247.932693,178.518585 243.931747,180.262619 
	C239.555862,182.170090 236.904541,185.719727 236.416168,191.409454 
M146.063705,201.200363 
	C152.080750,201.382523 155.884171,199.440506 157.235321,194.250259 
	C158.453064,189.572433 158.559570,184.605347 159.146729,179.842438 
	C156.079926,179.842438 153.848389,179.842438 151.432556,179.842438 
	C151.137405,183.526611 151.089752,186.870270 150.518768,190.122055 
	C150.220459,191.820938 149.001877,193.358246 148.198929,194.968536 
	C147.728638,193.295624 146.887573,191.627518 146.865845,189.948807 
	C146.821854,186.546173 147.221527,183.137802 147.443970,179.642426 
	C144.687317,179.642426 142.567703,179.642426 140.141327,179.642426 
	C139.745529,183.742157 139.274124,187.675934 139.008362,191.623550 
	C138.691208,196.334595 140.713593,199.612701 146.063705,201.200363 
M172.320526,197.919464 
	C174.099548,202.687912 177.685089,201.200363 181.363754,200.720139 
	C179.786362,193.483566 178.280838,186.576645 176.550171,178.636810 
	C173.064575,179.568130 168.299927,179.444580 167.189606,181.398056 
	C163.771683,187.411621 161.751114,194.219391 158.988434,201.223450 
	C162.946426,200.832169 166.719131,202.710968 168.624390,198.154587 
	C168.799408,197.735992 170.470917,197.943130 172.320526,197.919464 
M344.109222,200.823227 
	C346.486481,200.927139 348.863739,201.031052 351.633789,201.152130 
	C349.977875,193.501602 348.475769,186.561707 346.756836,178.620026 
	C343.237732,179.569061 338.449768,179.454300 337.327240,181.426208 
	C333.937714,187.380219 331.971893,194.144730 328.861908,202.100540 
	C332.620026,199.945999 336.172333,203.425842 338.419373,198.622726 
	C339.152344,197.055954 342.644989,196.662476 344.109222,200.823227 
M48.900494,179.481537 
	C43.989513,179.481537 39.078529,179.481537 34.046448,179.481537 
	C33.368233,186.999390 32.746952,193.886124 32.104576,201.006699 
	C37.679932,201.006699 42.775124,201.006699 48.135582,201.006699 
	C48.345863,199.095169 48.537167,197.356171 48.763264,195.300858 
	C45.727142,195.159668 43.114536,195.038193 40.501930,194.916702 
	C40.502655,194.582153 40.503384,194.247589 40.504108,193.913025 
	C42.245850,193.706482 43.987595,193.499939 46.009895,193.260117 
	C46.111835,191.250992 46.208649,189.342987 46.308289,187.379211 
	C44.320114,187.165695 42.783661,187.000687 41.247208,186.835678 
	C41.251118,186.472565 41.255024,186.109451 41.258934,185.746338 
	C43.904789,185.746338 46.550644,185.746338 49.707863,185.746338 
	C49.707863,183.337585 49.707863,181.587448 48.900494,179.481537 
M111.225731,179.428116 
	C107.291405,179.428116 103.357079,179.428116 99.299034,179.428116 
	C98.662498,186.957565 98.080780,193.838562 97.490463,200.821320 
	C103.108742,200.821320 108.295937,200.821320 113.633347,200.821320 
	C113.633347,198.717972 113.633347,197.012421 113.633347,195.330231 
	C110.907616,195.142807 108.518059,194.978485 106.128502,194.814163 
	C106.150528,194.472717 106.172562,194.131256 106.194588,193.789810 
	C107.751137,193.645905 109.307678,193.501999 111.184441,193.328491 
	C111.421715,191.282013 111.638542,189.411896 111.855888,187.537323 
	C109.731598,187.176025 108.126022,186.902954 106.520454,186.629883 
	C106.544876,186.373093 106.569305,186.116318 106.593735,185.859528 
	C109.324623,185.661850 112.055511,185.464172 115.576378,185.209305 
	C114.075584,183.005600 117.494926,179.138458 111.225731,179.428116 
M574.526428,179.426224 
	C572.069580,179.426224 569.612732,179.426224 566.645569,179.426224 
	C565.997375,186.789154 565.381653,193.783630 564.761780,200.825043 
	C570.509583,200.825043 575.698853,200.825043 580.987671,200.825043 
	C580.987671,198.823563 580.987671,197.207458 580.987671,195.330063 
	C578.298584,195.171158 575.740356,195.019974 573.182068,194.868805 
	C573.209473,194.535599 573.236877,194.202393 573.264221,193.869186 
	C574.982788,193.647476 576.701416,193.425766 578.708740,193.166809 
	C578.708740,191.096024 578.708740,189.227386 578.708740,187.396774 
	C576.951599,187.130890 575.497314,186.910828 574.042969,186.690765 
	C574.062439,186.395325 574.081970,186.099884 574.101440,185.804443 
	C576.658264,185.666809 579.215027,185.529175 582.011414,185.378647 
	C582.268433,183.434753 582.498474,181.695358 582.798523,179.426254 
	C580.032715,179.426254 577.737244,179.426254 574.526428,179.426224 
M598.242371,179.643417 
	C597.224426,186.693054 596.206482,193.742676 595.172119,200.906189 
	C598.405334,200.906189 600.655212,200.906189 602.859375,200.906189 
	C603.193726,198.522141 603.488647,196.419678 603.794312,194.240250 
	C605.656921,194.074646 607.332336,194.097885 608.927063,193.750610 
	C613.186523,192.823029 615.827271,190.070801 615.629028,185.727005 
	C615.428040,181.321899 612.247864,179.550888 608.083496,179.483749 
	C605.093140,179.435516 602.101318,179.480576 598.242371,179.643417 
M27.192251,191.809372 
	C31.043003,186.461975 30.488243,181.285492 25.494902,180.141663 
	C21.525677,179.232422 17.251266,179.571335 13.112704,179.577957 
	C12.506446,179.578934 11.439328,180.766495 11.369190,181.481857 
	C10.730515,187.995789 10.265731,194.526794 9.756277,200.974854 
	C12.626709,200.974854 14.755713,200.974854 16.870153,200.974854 
	C17.317434,198.543106 17.725605,196.323990 17.994741,194.860764 
	C21.265785,193.850143 23.898239,193.036819 27.192251,191.809372 
M76.663673,182.245026 
	C76.087967,188.476761 75.512260,194.708496 74.942871,200.871918 
	C77.773094,200.871918 80.015305,200.871918 82.501724,200.871918 
	C82.753075,198.484879 82.974129,196.385544 83.188225,194.352249 
	C85.551674,194.006500 87.767143,194.011032 89.740929,193.322632 
	C93.419571,192.039581 95.459045,189.267776 94.997643,185.262756 
	C94.537224,181.266327 91.707260,179.692047 88.022919,179.512665 
	C85.031494,179.367004 82.018761,179.335190 79.036255,179.546387 
	C78.238762,179.602844 77.517433,180.734894 76.663673,182.245026 
M724.016724,192.556610 
	C724.997620,193.176178 725.978577,193.795731 726.959473,194.415298 
	C726.811035,194.713043 726.662598,195.010803 726.514160,195.308563 
	C724.436462,194.588287 722.358765,193.868027 720.021606,193.057800 
	C719.730225,195.421234 719.452454,197.673981 719.187073,199.826324 
	C726.263367,202.664536 732.775208,201.535843 735.235168,197.252258 
	C737.388367,193.502869 736.232727,191.207565 729.005981,185.611923 
	C731.663635,186.164322 733.647034,186.576569 735.855164,187.035538 
	C735.963135,184.582901 736.056091,182.472321 736.168640,179.917480 
	C732.596191,179.917480 729.231628,179.330460 726.165466,180.037430 
	C719.400513,181.597183 718.264893,187.202667 724.016724,192.556610 
M362.067169,193.252197 
	C362.360596,191.271851 362.313324,187.733749 363.006714,187.582108 
	C365.933167,186.942062 369.080322,187.311142 373.149384,187.311142 
	C372.597473,185.330475 372.692413,181.929062 371.101044,180.685379 
	C366.899200,177.401550 359.687256,179.580490 356.222717,184.417084 
	C352.833740,189.148209 353.225830,195.304810 357.310699,198.894653 
	C360.971252,202.111618 365.409790,202.400726 369.313873,200.100311 
	C371.046326,199.079483 371.467865,195.833908 372.686798,193.153229 
	C368.405243,193.481262 365.551575,193.699890 362.067169,193.252197 
M224.958252,186.664108 
	C227.573624,187.100220 230.189011,187.536316 232.812149,187.973724 
	C234.303955,181.320999 233.452789,179.806915 227.845413,179.264511 
	C219.853241,178.491409 213.032623,186.524139 215.110352,194.262772 
	C216.493393,199.414047 221.740143,202.132874 227.758987,201.156906 
	C232.847458,200.331833 232.824158,197.024612 232.470551,193.863190 
	C228.898773,193.432144 225.766449,193.054123 222.634109,192.676117 
	C223.147110,190.784653 223.660110,188.893173 224.958252,186.664108 
M667.425781,191.827316 
	C667.209656,194.800781 666.993591,197.774261 666.759705,200.992126 
	C669.317993,200.992126 671.572632,200.992126 674.005249,200.992126 
	C674.416260,198.473877 674.807190,196.078568 675.177795,193.807571 
	C677.162598,193.582397 678.776611,193.399277 680.689697,193.182236 
	C680.822876,191.178391 680.940369,189.410080 681.065674,187.525253 
	C679.194153,187.185898 677.642517,186.904541 676.090881,186.623184 
	C676.127625,186.337204 676.164368,186.051239 676.201050,185.765259 
	C678.754028,185.644623 681.307068,185.523972 684.046387,185.394531 
	C684.230164,183.294830 684.381226,181.568939 684.540161,179.752777 
	C678.964539,179.752777 673.897827,179.752777 668.521240,179.752777 
	C668.185913,183.677231 667.876526,187.298294 667.425781,191.827316 
M475.417725,196.728119 
	C475.352448,198.142456 475.287170,199.556778 475.224854,200.906982 
	C477.950043,200.906982 480.201538,200.906982 482.635742,200.906982 
	C482.909912,198.388260 483.153931,196.146561 483.408630,193.806885 
	C485.342804,193.650314 486.978699,193.517899 488.956909,193.357773 
	C489.103821,191.396179 489.247192,189.482162 489.396973,187.482849 
	C487.380951,187.170547 485.787811,186.923752 484.194672,186.676956 
	C484.223511,186.403961 484.252350,186.130966 484.281189,185.857986 
	C487.004944,185.658859 489.728668,185.459732 492.705200,185.242111 
	C492.705200,183.158737 492.705200,181.434296 492.705200,179.711487 
	C487.359589,179.711487 482.290588,179.711487 477.015472,179.711487 
	C476.514557,185.259308 476.037689,190.541000 475.417725,196.728119 
M287.856567,180.206329 
	C287.588287,181.801941 287.320007,183.397537 287.031830,185.111343 
	C289.178101,185.476852 290.904785,185.770905 292.662354,186.070206 
	C292.288849,191.207169 291.935059,196.072937 291.582214,200.925507 
	C294.414459,200.925507 296.642334,200.925507 298.966522,200.925507 
	C299.496796,195.753372 299.998962,190.855621 300.517975,185.793396 
	C302.460846,185.645798 304.074677,185.523193 305.946198,185.381012 
	C306.164032,183.508118 306.368073,181.753571 306.620667,179.581665 
	C300.306671,179.581665 294.372437,179.581665 287.856567,180.206329 
M699.003296,180.307800 
	C698.854248,181.903320 698.705261,183.498840 698.532166,185.351746 
	C700.541748,185.512817 702.125732,185.639786 704.005310,185.790436 
	C703.590454,190.952972 703.195251,195.871277 702.782776,201.005066 
	C705.390625,201.005066 707.646667,201.005066 710.202698,201.005066 
	C710.757263,195.800522 711.293945,190.763443 711.815918,185.864746 
	C713.948792,185.604034 715.540649,185.409454 717.379700,185.184662 
	C717.556213,183.213593 717.709534,181.501755 717.879272,179.606430 
	C711.379089,179.606430 705.421387,179.606430 699.003296,180.307800 
M387.874695,198.089569 
	C388.239655,193.984955 388.604614,189.880325 388.965393,185.822784 
	C391.016571,185.620224 392.636810,185.460220 394.655853,185.260818 
	C394.803101,183.348923 394.937683,181.601303 395.087433,179.656647 
	C388.616638,179.656647 382.528381,179.656647 376.095520,179.656647 
	C375.980011,181.626740 375.877258,183.379562 375.766174,185.274292 
	C377.754669,185.488144 379.324677,185.656982 381.194977,185.858124 
	C380.770813,191.116928 380.377106,195.998093 379.932373,201.511993 
	C382.827698,200.123367 386.380371,203.561401 387.874695,198.089569 
M122.883568,190.211563 
	C122.552757,193.769073 122.221939,197.326569 121.884621,200.954010 
	C124.684341,200.954010 126.939438,200.954010 129.380219,200.954010 
	C129.935211,195.715637 130.466263,190.703140 130.980545,185.848999 
	C133.193298,185.582779 134.793961,185.390198 136.683899,185.162811 
	C136.771072,183.178558 136.846664,181.458206 136.922989,179.720764 
	C130.376266,179.720764 124.313957,179.720764 118.057083,179.720764 
	C118.057083,181.760803 118.057083,183.498459 118.057083,185.390106 
	C119.763885,185.521545 121.210258,185.632935 122.933479,185.765625 
	C122.933479,187.046600 122.933479,188.172043 122.883568,190.211563 
M556.223999,194.835922 
	C556.567078,191.876556 556.910095,188.917191 557.261475,185.885742 
	C559.132751,185.657349 560.900085,185.441650 562.912476,185.196030 
	C563.005005,183.282959 563.089539,181.535965 563.174194,179.785995 
	C556.582214,179.785995 550.521790,179.785995 544.287109,179.785995 
	C544.287109,181.873489 544.287109,183.592697 544.287109,185.257523 
	C546.154053,185.570557 547.709412,185.831345 549.367188,186.109299 
	C548.968140,191.252396 548.598022,196.022507 548.217102,200.931686 
	C550.831238,200.931686 553.246216,200.931686 555.777832,200.931686 
	C555.916321,199.008774 556.035217,197.358459 556.223999,194.835922 
M193.847336,180.894745 
	C191.445374,180.288284 189.043411,179.681824 186.343857,179.000244 
	C185.682236,187.045288 185.117294,193.914703 184.538574,200.951859 
	C190.102020,200.951859 195.169373,200.951859 200.607925,200.951859 
	C200.747452,199.015930 200.871460,197.295471 201.014572,195.309769 
	C198.037857,195.174728 195.464127,195.057983 192.585678,194.927414 
	C193.014236,190.282730 193.408035,186.014679 193.847336,180.894745 
M439.740631,183.228775 
	C439.196075,189.117203 438.651520,195.005615 438.103699,200.929260 
	C440.915253,200.929260 443.170044,200.929260 445.691559,200.929260 
	C446.296753,193.669205 446.881622,186.653030 447.466492,179.636871 
	C444.884033,181.270874 440.206207,176.260101 439.740631,183.228775 
M693.792664,200.305756 
	C694.370667,193.418472 694.948669,186.531204 695.529724,179.608185 
	C692.800049,179.608185 690.530518,179.608185 688.061584,179.608185 
	C687.420227,186.870544 686.799377,193.900848 686.172668,200.997147 
	C688.900696,200.997147 691.047119,200.997147 693.792664,200.305756 
M540.950745,180.872864 
	C538.582520,180.219666 536.214294,179.566483 533.465515,178.808350 
	C532.820190,186.930206 532.264526,193.924088 531.713562,200.858139 
	C534.555847,200.858139 536.769043,200.858139 539.097107,200.858139 
	C539.723511,194.275665 540.319397,188.014999 540.950745,180.872864 
M495.584991,189.980484 
	C495.287323,193.561478 494.989685,197.142471 494.671478,200.970673 
	C497.357422,200.970673 499.591461,200.970673 502.115082,200.970673 
	C502.755096,193.789322 503.379059,186.788147 504.022064,179.573380 
	C501.237152,179.573380 498.998444,179.573380 496.432922,179.573380 
	C496.178925,182.856873 495.938812,185.961319 495.584991,189.980484 
M421.360321,202.863083 
	C422.371002,200.177902 423.381714,197.492722 424.579559,194.310364 
	C421.449463,194.310364 419.328247,194.310364 417.046936,194.310364 
	C416.576111,197.218750 416.110931,200.092422 415.585876,203.336075 
	C417.571198,203.336075 419.170715,203.336075 421.360321,202.863083 
z"/>
<path fill="#787878" opacity="1.000000" stroke="none" 
	d="
M192.717560,113.644745 
	C192.180176,118.563766 192.008713,123.094627 191.050537,127.452507 
	C188.256302,140.160919 180.470367,148.676361 168.287155,153.115082 
	C154.941360,157.977386 140.979218,159.156982 126.971809,158.967285 
	C102.862656,158.640778 78.734604,158.230988 54.668709,156.885925 
	C44.411453,156.312622 34.387367,153.119308 26.239864,145.951645 
	C18.550781,139.187256 14.265517,130.581390 14.144485,120.548347 
	C13.748647,87.735001 13.857387,54.915771 13.672652,22.099363 
	C13.655323,19.020864 14.727266,18.089365 17.734501,18.119139 
	C30.561293,18.246140 43.392735,18.320375 56.216507,18.086481 
	C60.163525,18.014490 60.875835,19.514084 60.857204,23.051310 
	C60.727364,47.707134 60.772087,72.363976 60.794109,97.020462 
	C60.808086,112.668922 66.316849,119.142807 81.990913,119.857857 
	C96.584915,120.523628 111.252998,120.404854 125.855019,119.810173 
	C139.374405,119.259590 145.769043,111.687744 145.815857,97.494507 
	C145.896652,73.004868 145.838470,48.514771 145.838593,24.024864 
	C145.838608,22.246775 145.838593,20.468683 145.838593,18.182379 
	C160.887131,18.182379 175.338120,18.122957 189.785843,18.312763 
	C190.775162,18.325762 192.028168,20.061647 192.623764,21.261703 
	C193.088852,22.198820 192.726486,23.548147 192.726471,24.714310 
	C192.726089,54.202061 192.725006,83.689812 192.717560,113.644745 
z"/>
<path fill="#FCFCFC" opacity="1.000000" stroke="none" 
	d="
M526.905762,23.568333 
	C527.333862,21.662888 527.890076,20.126499 528.482910,18.488939 
	C544.761047,18.488939 560.916382,18.415949 577.068848,18.595999 
	C578.781799,18.615091 580.773254,19.782686 582.136963,20.983597 
	C597.370667,34.398682 612.506287,47.925117 627.986572,61.704880 
	C634.691162,55.746468 641.257080,49.918098 647.815430,44.081165 
	C656.524841,36.329762 665.192322,28.530512 673.974426,20.862364 
	C675.239624,19.757650 677.036987,18.613472 678.599243,18.597773 
	C694.917419,18.433767 711.237854,18.496611 727.265137,18.496611 
	C730.284973,21.972469 729.184998,24.190586 726.149170,26.866323 
	C704.532654,45.918736 683.088440,65.166588 661.594055,84.357399 
	C660.371338,85.449036 659.189026,86.585930 657.617554,88.045868 
	C666.804504,96.301285 675.793152,104.402237 684.808105,112.473923 
	C699.078552,125.251183 713.282532,138.105209 727.712891,150.699585 
	C730.886475,153.469406 732.029358,155.851746 729.202942,159.511017 
	C713.184814,159.511017 697.029541,159.584824 680.877197,159.402542 
	C679.167847,159.383255 677.186157,158.188873 675.819275,156.985092 
	C659.953735,143.012405 644.182251,128.932953 628.017639,114.554382 
	C626.612488,115.782967 625.262390,116.938751 623.938965,118.124344 
	C609.547852,131.016769 595.221985,143.983490 580.694336,156.720154 
	C578.916870,158.278488 576.077087,159.349869 573.708191,159.390121 
	C559.385864,159.633484 545.056091,159.598053 530.732544,159.393066 
	C529.081909,159.369446 527.095276,158.052963 525.893982,156.753815 
	C523.650330,154.327530 526.148254,152.973038 527.694946,151.587692 
	C550.275391,131.362656 572.867371,111.150459 595.453796,90.932083 
	C596.419739,90.067421 597.358643,89.172638 598.660950,87.967232 
	C574.628601,66.483925 550.831299,45.210659 526.905762,23.568333 
z"/>
<path fill="#AFAFAF" opacity="1.000000" stroke="none" 
	d="
M264.000122,18.535671 
	C283.135284,18.978737 301.846649,18.523291 320.386047,20.095543 
	C342.914856,22.006126 353.243500,33.638653 353.802490,56.417976 
	C354.333527,78.058403 354.224579,99.727692 353.825439,121.373741 
	C353.489410,139.595688 345.687592,151.477570 331.586487,155.549103 
	C325.094391,157.423599 318.192139,158.671127 311.454926,158.769592 
	C277.813873,159.261246 244.165878,159.280670 210.520203,159.442413 
	C209.571655,159.446976 208.621826,159.184433 207.458176,159.015274 
	C207.458176,146.384872 207.458176,133.962143 207.458176,120.838676 
	C209.337341,120.838676 211.096222,120.838676 212.855103,120.838676 
	C235.342300,120.838669 257.829773,120.900223 280.316528,120.797478 
	C286.303833,120.770126 292.291504,120.283821 298.273987,119.924957 
	C302.810211,119.652855 306.006805,117.588966 306.210510,112.704353 
	C306.646942,102.239632 307.034424,91.767700 307.126221,81.295944 
	C307.172760,75.993187 306.661041,70.672394 306.165741,65.381844 
	C305.707062,60.482498 302.818146,58.044170 297.867310,57.895657 
	C289.717560,57.651188 281.572113,57.087162 273.422699,57.041332 
	C251.608994,56.918652 229.794113,56.999527 207.594452,56.999527 
	C207.594452,44.257347 207.594452,31.724112 207.594452,18.535822 
	C226.304901,18.535822 244.902512,18.535822 264.000122,18.535671 
z"/>
<path fill="#E7E7E7" opacity="1.000000" stroke="none" 
	d="
M516.353638,72.263557 
	C516.356445,84.371437 516.356445,96.002937 516.356445,108.093262 
	C483.098297,108.093262 450.177887,108.093262 417.269165,108.093262 
	C417.109680,117.206772 419.221344,119.953629 427.707001,120.105522 
	C451.694641,120.534866 475.688507,120.623482 499.680054,120.826134 
	C504.995850,120.871033 510.312378,120.832718 515.991943,120.832718 
	C515.991943,133.599579 515.991943,146.151810 515.991943,159.110229 
	C514.852722,159.236221 513.604919,159.499603 512.358398,159.493774 
	C479.863892,159.341858 447.367767,159.300537 414.876099,158.901733 
	C405.241089,158.783478 395.591644,157.786057 386.723999,153.325867 
	C375.477234,147.669037 370.878662,137.492844 370.403412,125.957062 
	C369.636932,107.352539 370.197449,88.693344 370.197449,69.692261 
	C371.514465,69.628532 372.969727,69.496910 374.425018,69.496567 
	C420.086426,69.485725 465.747925,69.463646 511.409027,69.584595 
	C513.058228,69.588959 514.703613,71.020676 516.353638,72.263557 
z"/>
<path fill="#E7E7E7" opacity="1.000000" stroke="none" 
	d="
M374.666016,36.797260 
	C380.689636,25.421366 390.885681,21.158081 402.359344,20.131020 
	C415.272186,18.975134 428.287323,18.695240 441.263184,18.568445 
	C465.081451,18.335703 488.903564,18.492760 512.724060,18.496832 
	C513.706299,18.497000 514.688538,18.593653 516.004395,18.662916 
	C516.004395,31.393686 516.004395,43.946342 516.004395,56.750988 
	C467.494568,56.750988 418.923828,56.750988 368.917572,56.750988 
	C370.841431,49.932438 372.650269,43.521503 374.666016,36.797260 
z"/>
<path fill="#EFEFEF" opacity="1.000000" stroke="none" 
	d="
M515.121765,179.585022 
	C517.064575,181.906998 518.628784,184.155426 520.605042,186.996063 
	C520.923950,184.139862 521.153381,182.085159 521.413391,179.756409 
	C523.809631,179.756409 526.063660,179.756409 528.884155,179.756409 
	C528.237366,186.859879 527.601135,193.847107 526.970825,200.769150 
	C520.957642,201.428040 520.957642,201.428040 515.146973,194.456131 
	C514.770996,196.634766 514.413818,198.704544 514.023315,200.967529 
	C511.794128,200.967529 509.677765,200.967529 506.843658,200.967529 
	C507.412170,194.051086 507.986877,187.059494 508.607300,179.511505 
	C510.888336,179.511505 512.815796,179.511505 515.121765,179.585022 
z"/>
<path fill="#EFEFEF" opacity="1.000000" stroke="none" 
	d="
M454.070648,201.187119 
	C452.656281,201.125366 451.688049,201.063599 450.294891,200.974716 
	C450.921661,193.845428 451.527435,186.955429 452.126221,180.144608 
	C458.601135,177.144501 461.014740,181.899414 463.825592,186.990662 
	C464.403320,183.919601 464.791962,181.853607 465.208252,179.640717 
	C467.416046,179.640717 469.525940,179.640717 472.314117,179.640717 
	C471.737823,186.734055 471.179932,193.601196 470.628754,200.385208 
	C464.938507,201.792740 464.938507,201.792740 458.841583,194.822372 
	C456.780853,196.533340 460.181580,202.050552 454.070648,201.187119 
z"/>
<path fill="#EFEFEF" opacity="1.000000" stroke="none" 
	d="
M264.126740,180.460358 
	C270.565460,177.158630 272.987396,181.891556 275.791840,186.974564 
	C276.355286,183.926437 276.736298,181.865219 277.146118,179.648087 
	C279.381287,179.648087 281.486298,179.648087 284.275665,179.648087 
	C283.671295,186.859589 283.084808,193.857590 282.524200,200.546921 
	C275.993958,203.017120 273.284943,199.222015 270.468201,194.606049 
	C270.208832,196.588348 269.949463,198.570663 269.648956,200.867493 
	C267.292938,200.867493 264.913635,200.867493 262.236389,200.867493 
	C262.843140,194.029739 263.427307,187.446335 264.126740,180.460358 
z"/>
<path fill="#EFEFEF" opacity="1.000000" stroke="none" 
	d="
M637.930786,188.462494 
	C636.683167,190.408798 635.497925,191.962814 634.114563,193.776535 
	C635.014160,195.828598 636.050049,198.191437 637.277588,200.991455 
	C632.952515,200.967850 628.497986,203.088181 626.393494,195.407883 
	C626.040955,202.944916 621.876160,201.001053 618.007202,201.101028 
	C618.636230,194.018906 619.258118,187.017044 619.873962,180.083115 
	C632.978699,178.270264 639.189087,179.744202 637.930786,188.462494 
z"/>
<path fill="#F0F0F0" opacity="1.000000" stroke="none" 
	d="
M308.111145,199.896149 
	C308.731750,192.998550 309.354126,186.559570 310.039978,179.464233 
	C312.885498,179.464233 315.633636,179.493011 318.380951,179.457230 
	C322.130127,179.408386 326.086823,179.402328 327.656342,183.584030 
	C329.162994,187.598267 327.924805,191.129532 323.910767,193.221069 
	C325.065826,195.892334 326.094055,198.270370 327.277649,201.007660 
	C322.748932,200.963501 317.911865,203.184814 316.164398,196.750824 
	C315.946411,198.123520 315.728455,199.496231 315.410339,201.499695 
	C312.775421,201.086288 310.444183,200.720535 308.111145,199.896149 
z"/>
<path fill="#F1F1F1" opacity="1.000000" stroke="none" 
	d="
M72.086472,184.446289 
	C71.289490,187.797989 70.420540,190.746811 69.551582,193.695633 
	C69.065163,193.597534 68.578743,193.499435 68.092323,193.401321 
	C69.121902,195.753052 70.151489,198.104767 71.370544,200.889282 
	C66.861145,201.134628 62.334332,202.971222 60.974209,196.932281 
	C60.538498,196.797470 60.380146,196.748474 60.221786,196.699478 
	C60.047459,198.004776 59.873131,199.310089 59.661201,200.896927 
	C57.281094,200.896927 54.889835,200.896927 52.163780,200.896927 
	C52.816700,193.761047 53.445446,186.889389 54.134129,179.362701 
	C60.323650,180.742416 67.569427,176.192902 72.086472,184.446289 
z"/>
<path fill="#EFEFEF" opacity="1.000000" stroke="none" 
	d="
M654.152344,201.104111 
	C646.495178,201.674728 641.902954,198.750778 641.044434,193.049118 
	C640.120911,186.916077 644.122681,181.179916 650.369751,179.681946 
	C656.458191,178.222046 661.686890,181.008148 663.423157,186.637390 
	C665.292969,192.699554 661.843689,198.288361 654.152344,201.104111 
M654.740173,186.036453 
	C650.502197,184.033630 649.123779,187.073044 648.918091,190.070129 
	C648.805664,191.706467 650.807007,194.928513 651.885498,194.941696 
	C655.425842,194.984955 656.151550,191.974533 656.012756,188.929169 
	C655.977417,188.154404 655.509399,187.399384 654.740173,186.036453 
z"/>
<path fill="#F1F1F1" opacity="1.000000" stroke="none" 
	d="
M236.418060,191.025330 
	C236.904541,185.719727 239.555862,182.170090 243.931747,180.262619 
	C247.932693,178.518585 252.101547,178.700653 255.686020,181.623978 
	C259.163910,184.460373 259.982330,188.337143 258.962097,192.456360 
	C257.835510,197.004974 254.689713,199.930252 250.145935,201.008118 
	C242.626175,202.791977 237.893890,199.400070 236.418060,191.025330 
M244.619797,188.415878 
	C243.739868,193.064606 245.257675,196.155609 247.943741,195.012466 
	C249.573105,194.319061 251.102753,192.154282 251.564011,190.363754 
	C251.903107,189.047363 250.437393,187.266052 249.775955,185.691925 
	C248.173828,186.370621 246.571701,187.049316 244.619797,188.415878 
z"/>
<path fill="#EBEBEB" opacity="1.000000" stroke="none" 
	d="
M145.692078,201.154541 
	C140.713593,199.612701 138.691208,196.334595 139.008362,191.623550 
	C139.274124,187.675934 139.745529,183.742157 140.141327,179.642426 
	C142.567703,179.642426 144.687317,179.642426 147.443970,179.642426 
	C147.221527,183.137802 146.821854,186.546173 146.865845,189.948807 
	C146.887573,191.627518 147.728638,193.295624 148.198914,194.968536 
	C149.001877,193.358246 150.220459,191.820938 150.518768,190.122055 
	C151.089752,186.870270 151.137405,183.526611 151.432556,179.842438 
	C153.848389,179.842438 156.079926,179.842438 159.146729,179.842438 
	C158.559570,184.605347 158.453064,189.572433 157.235321,194.250259 
	C155.884171,199.440506 152.080750,201.382523 145.692078,201.154541 
z"/>
<path fill="#F0F0F0" opacity="1.000000" stroke="none" 
	d="
M171.884033,197.889587 
	C170.470917,197.943130 168.799408,197.735992 168.624390,198.154587 
	C166.719131,202.710968 162.946426,200.832169 158.988434,201.223450 
	C161.751114,194.219391 163.771683,187.411621 167.189606,181.398056 
	C168.299927,179.444580 173.064575,179.568130 176.550171,178.636810 
	C178.280838,186.576645 179.786362,193.483566 181.363754,200.720139 
	C177.685089,201.200363 174.099548,202.687912 171.884033,197.889587 
z"/>
<path fill="#F0F0F0" opacity="1.000000" stroke="none" 
	d="
M343.901154,200.426178 
	C342.644989,196.662476 339.152344,197.055954 338.419373,198.622726 
	C336.172333,203.425842 332.620026,199.945999 328.861908,202.100540 
	C331.971893,194.144730 333.937714,187.380219 337.327240,181.426208 
	C338.449768,179.454300 343.237732,179.569061 346.756836,178.620026 
	C348.475769,186.561707 349.977875,193.501602 351.633789,201.152130 
	C348.863739,201.031052 346.486481,200.927139 343.901154,200.426178 
z"/>
<path fill="#E7E7E7" opacity="1.000000" stroke="none" 
	d="
M49.304176,179.659424 
	C49.707863,181.587448 49.707863,183.337585 49.707863,185.746338 
	C46.550644,185.746338 43.904789,185.746338 41.258934,185.746338 
	C41.255024,186.109451 41.251118,186.472565 41.247208,186.835678 
	C42.783661,187.000687 44.320114,187.165695 46.308289,187.379211 
	C46.208649,189.342987 46.111835,191.250992 46.009895,193.260117 
	C43.987595,193.499939 42.245850,193.706482 40.504108,193.913025 
	C40.503384,194.247589 40.502655,194.582153 40.501930,194.916702 
	C43.114536,195.038193 45.727142,195.159668 48.763264,195.300858 
	C48.537167,197.356171 48.345863,199.095169 48.135582,201.006699 
	C42.775124,201.006699 37.679932,201.006699 32.104576,201.006699 
	C32.746952,193.886124 33.368233,186.999390 34.046448,179.481537 
	C39.078529,179.481537 43.989513,179.481537 49.304176,179.659424 
z"/>
<path fill="#E7E7E7" opacity="1.000000" stroke="none" 
	d="
M111.687225,179.428467 
	C117.494926,179.138458 114.075584,183.005600 115.576378,185.209305 
	C112.055511,185.464172 109.324623,185.661850 106.593735,185.859528 
	C106.569305,186.116318 106.544876,186.373093 106.520454,186.629883 
	C108.126022,186.902954 109.731598,187.176025 111.855888,187.537323 
	C111.638542,189.411896 111.421715,191.282013 111.184441,193.328491 
	C109.307678,193.501999 107.751137,193.645905 106.194588,193.789810 
	C106.172562,194.131256 106.150528,194.472717 106.128502,194.814163 
	C108.518059,194.978485 110.907616,195.142807 113.633347,195.330231 
	C113.633347,197.012421 113.633347,198.717972 113.633347,200.821320 
	C108.295937,200.821320 103.108742,200.821320 97.490463,200.821320 
	C98.080780,193.838562 98.662498,186.957565 99.299034,179.428116 
	C103.357079,179.428116 107.291405,179.428116 111.687225,179.428467 
z"/>
<path fill="#E7E7E7" opacity="1.000000" stroke="none" 
	d="
M574.984070,179.426239 
	C577.737244,179.426254 580.032715,179.426254 582.798523,179.426254 
	C582.498474,181.695358 582.268433,183.434753 582.011414,185.378647 
	C579.215027,185.529175 576.658264,185.666809 574.101440,185.804443 
	C574.081970,186.099884 574.062439,186.395325 574.042969,186.690765 
	C575.497314,186.910828 576.951599,187.130890 578.708740,187.396774 
	C578.708740,189.227386 578.708740,191.096024 578.708740,193.166809 
	C576.701416,193.425766 574.982788,193.647476 573.264221,193.869186 
	C573.236877,194.202393 573.209473,194.535599 573.182068,194.868805 
	C575.740356,195.019974 578.298584,195.171158 580.987671,195.330063 
	C580.987671,197.207458 580.987671,198.823563 580.987671,200.825043 
	C575.698853,200.825043 570.509583,200.825043 564.761780,200.825043 
	C565.381653,193.783630 565.997375,186.789154 566.645569,179.426224 
	C569.612732,179.426224 572.069580,179.426224 574.984070,179.426239 
z"/>
<path fill="#EFEFEF" opacity="1.000000" stroke="none" 
	d="
M598.676270,179.563721 
	C602.101318,179.480576 605.093140,179.435516 608.083496,179.483749 
	C612.247864,179.550888 615.428040,181.321899 615.629028,185.727005 
	C615.827271,190.070801 613.186523,192.823029 608.927063,193.750610 
	C607.332336,194.097885 605.656921,194.074646 603.794312,194.240250 
	C603.488647,196.419678 603.193726,198.522141 602.859375,200.906189 
	C600.655212,200.906189 598.405334,200.906189 595.172119,200.906189 
	C596.206482,193.742676 597.224426,186.693054 598.676270,179.563721 
z"/>
<path fill="#EDEDED" opacity="1.000000" stroke="none" 
	d="
M26.861471,192.016434 
	C23.898239,193.036819 21.265785,193.850143 17.994741,194.860764 
	C17.725605,196.323990 17.317434,198.543106 16.870153,200.974854 
	C14.755713,200.974854 12.626709,200.974854 9.756277,200.974854 
	C10.265731,194.526794 10.730515,187.995789 11.369190,181.481857 
	C11.439328,180.766495 12.506446,179.578934 13.112704,179.577957 
	C17.251266,179.571335 21.525677,179.232422 25.494902,180.141663 
	C30.488243,181.285492 31.043003,186.461975 26.861471,192.016434 
z"/>
<path fill="#EDEDED" opacity="1.000000" stroke="none" 
	d="
M76.712402,181.809082 
	C77.517433,180.734894 78.238762,179.602844 79.036255,179.546387 
	C82.018761,179.335190 85.031494,179.367004 88.022919,179.512665 
	C91.707260,179.692047 94.537224,181.266327 94.997643,185.262756 
	C95.459045,189.267776 93.419571,192.039581 89.740929,193.322632 
	C87.767143,194.011032 85.551674,194.006500 83.188225,194.352249 
	C82.974129,196.385544 82.753075,198.484879 82.501724,200.871918 
	C80.015305,200.871918 77.773094,200.871918 74.942871,200.871918 
	C75.512260,194.708496 76.087967,188.476761 76.712402,181.809082 
z"/>
<path fill="#F0F0F0" opacity="1.000000" stroke="none" 
	d="
M408.622711,187.419388 
	C412.283783,189.559982 414.452850,192.472229 412.708588,196.827362 
	C410.969482,201.169693 404.950745,202.435181 396.627411,200.195419 
	C396.764984,197.925537 396.910095,195.532013 397.060455,193.051208 
	C398.691589,193.468567 400.048065,193.815643 402.889130,194.542587 
	C398.784912,190.712433 395.195374,187.431976 398.582886,183.072723 
	C402.377808,178.189194 407.799255,178.840515 413.443573,180.314117 
	C413.259705,182.629074 413.080994,184.879318 412.886414,187.329559 
	C411.823364,186.974823 411.050842,186.717010 409.546021,186.223587 
	C408.214844,186.038757 407.615906,186.089554 407.016968,186.140350 
	C407.552216,186.566696 408.087463,186.993042 408.622711,187.419388 
z"/>
<path fill="#F0F0F0" opacity="1.000000" stroke="none" 
	d="
M723.708618,192.342682 
	C718.264893,187.202667 719.400513,181.597183 726.165466,180.037430 
	C729.231628,179.330460 732.596191,179.917480 736.168640,179.917480 
	C736.056091,182.472321 735.963135,184.582901 735.855164,187.035538 
	C733.647034,186.576569 731.663635,186.164322 729.005981,185.611923 
	C736.232727,191.207565 737.388367,193.502869 735.235168,197.252258 
	C732.775208,201.535843 726.263367,202.664536 719.187073,199.826324 
	C719.452454,197.673981 719.730225,195.421234 720.021606,193.057800 
	C722.358765,193.868027 724.436462,194.588287 726.514160,195.308563 
	C726.662598,195.010803 726.811035,194.713043 726.959473,194.415298 
	C725.978577,193.795731 724.997620,193.176178 723.708618,192.342682 
z"/>
<path fill="#EEEEEE" opacity="1.000000" stroke="none" 
	d="
M362.382538,193.585358 
	C365.551575,193.699890 368.405243,193.481262 372.686798,193.153229 
	C371.467865,195.833908 371.046326,199.079483 369.313873,200.100311 
	C365.409790,202.400726 360.971252,202.111618 357.310699,198.894653 
	C353.225830,195.304810 352.833740,189.148209 356.222717,184.417084 
	C359.687256,179.580490 366.899200,177.401550 371.101044,180.685379 
	C372.692413,181.929062 372.597473,185.330475 373.149384,187.311142 
	C369.080322,187.311142 365.933167,186.942062 363.006714,187.582108 
	C362.313324,187.733749 362.360596,191.271851 362.382538,193.585358 
z"/>
<path fill="#EFEFEF" opacity="1.000000" stroke="none" 
	d="
M224.565674,186.832916 
	C223.660110,188.893173 223.147110,190.784653 222.634125,192.676117 
	C225.766449,193.054123 228.898773,193.432144 232.470551,193.863190 
	C232.824158,197.024612 232.847458,200.331833 227.758987,201.156906 
	C221.740143,202.132874 216.493393,199.414047 215.110352,194.262772 
	C213.032623,186.524139 219.853241,178.491409 227.845413,179.264511 
	C233.452789,179.806915 234.303955,181.320999 232.812149,187.973724 
	C230.189011,187.536316 227.573624,187.100220 224.565674,186.832916 
z"/>
<path fill="#E4E4E4" opacity="1.000000" stroke="none" 
	d="
M667.496460,191.373337 
	C667.876526,187.298294 668.185913,183.677231 668.521240,179.752777 
	C673.897827,179.752777 678.964539,179.752777 684.540161,179.752777 
	C684.381226,181.568939 684.230164,183.294830 684.046387,185.394531 
	C681.307068,185.523972 678.754028,185.644623 676.201050,185.765259 
	C676.164368,186.051239 676.127625,186.337204 676.090881,186.623184 
	C677.642517,186.904541 679.194153,187.185898 681.065674,187.525253 
	C680.940369,189.410080 680.822876,191.178391 680.689697,193.182236 
	C678.776611,193.399277 677.162598,193.582397 675.177795,193.807571 
	C674.807190,196.078568 674.416260,198.473877 674.005249,200.992126 
	C671.572632,200.992126 669.317993,200.992126 666.759705,200.992126 
	C666.993591,197.774261 667.209656,194.800781 667.496460,191.373337 
z"/>
<path fill="#E6E6E6" opacity="1.000000" stroke="none" 
	d="
M475.489258,196.275406 
	C476.037689,190.541000 476.514557,185.259308 477.015472,179.711487 
	C482.290588,179.711487 487.359589,179.711487 492.705200,179.711487 
	C492.705200,181.434296 492.705200,183.158737 492.705200,185.242111 
	C489.728668,185.459732 487.004944,185.658859 484.281189,185.857986 
	C484.252350,186.130966 484.223511,186.403961 484.194672,186.676956 
	C485.787811,186.923752 487.380951,187.170547 489.396973,187.482849 
	C489.247192,189.482162 489.103821,191.396179 488.956909,193.357773 
	C486.978699,193.517899 485.342804,193.650314 483.408630,193.806885 
	C483.153931,196.146561 482.909912,198.388260 482.635742,200.906982 
	C480.201538,200.906982 477.950043,200.906982 475.224854,200.906982 
	C475.287170,199.556778 475.352448,198.142456 475.489258,196.275406 
z"/>
<path fill="#E6E6E6" opacity="1.000000" stroke="none" 
	d="
M288.147400,179.893997 
	C294.372437,179.581665 300.306671,179.581665 306.620667,179.581665 
	C306.368073,181.753571 306.164032,183.508118 305.946198,185.381012 
	C304.074677,185.523193 302.460846,185.645798 300.517975,185.793396 
	C299.998962,190.855621 299.496796,195.753372 298.966522,200.925507 
	C296.642334,200.925507 294.414459,200.925507 291.582214,200.925507 
	C291.935059,196.072937 292.288849,191.207169 292.662354,186.070206 
	C290.904785,185.770905 289.178101,185.476852 287.031830,185.111343 
	C287.320007,183.397537 287.588287,181.801941 288.147400,179.893997 
z"/>
<path fill="#E6E6E6" opacity="1.000000" stroke="none" 
	d="
M699.233459,179.957123 
	C705.421387,179.606430 711.379089,179.606430 717.879272,179.606430 
	C717.709534,181.501755 717.556213,183.213593 717.379700,185.184662 
	C715.540649,185.409454 713.948792,185.604034 711.815918,185.864746 
	C711.293945,190.763443 710.757263,195.800522 710.202698,201.005066 
	C707.646667,201.005066 705.390625,201.005066 702.782776,201.005066 
	C703.195251,195.871277 703.590454,190.952972 704.005310,185.790436 
	C702.125732,185.639786 700.541748,185.512817 698.532166,185.351746 
	C698.705261,183.498840 698.854248,181.903320 699.233459,179.957123 
z"/>
<path fill="#E5E5E5" opacity="1.000000" stroke="none" 
	d="
M387.836670,198.513672 
	C386.380371,203.561401 382.827698,200.123367 379.932373,201.511993 
	C380.377106,195.998093 380.770813,191.116928 381.194977,185.858124 
	C379.324677,185.656982 377.754669,185.488144 375.766174,185.274292 
	C375.877258,183.379562 375.980011,181.626740 376.095520,179.656647 
	C382.528381,179.656647 388.616638,179.656647 395.087433,179.656647 
	C394.937683,181.601303 394.803101,183.348923 394.655853,185.260818 
	C392.636810,185.460220 391.016571,185.620224 388.965393,185.822784 
	C388.604614,189.880325 388.239655,193.984955 387.836670,198.513672 
z"/>
<path fill="#E5E5E5" opacity="1.000000" stroke="none" 
	d="
M122.908524,189.754532 
	C122.933479,188.172043 122.933479,187.046600 122.933479,185.765625 
	C121.210258,185.632935 119.763885,185.521545 118.057083,185.390106 
	C118.057083,183.498459 118.057083,181.760803 118.057083,179.720764 
	C124.313957,179.720764 130.376266,179.720764 136.922989,179.720764 
	C136.846664,181.458206 136.771072,183.178558 136.683899,185.162811 
	C134.793961,185.390198 133.193298,185.582779 130.980545,185.848999 
	C130.466263,190.703140 129.935211,195.715637 129.380219,200.954010 
	C126.939438,200.954010 124.684341,200.954010 121.884621,200.954010 
	C122.221939,197.326569 122.552757,193.769073 122.908524,189.754532 
z"/>
<path fill="#E5E5E5" opacity="1.000000" stroke="none" 
	d="
M556.189026,195.272034 
	C556.035217,197.358459 555.916321,199.008774 555.777832,200.931686 
	C553.246216,200.931686 550.831238,200.931686 548.217102,200.931686 
	C548.598022,196.022507 548.968140,191.252396 549.367188,186.109299 
	C547.709412,185.831345 546.154053,185.570557 544.287109,185.257523 
	C544.287109,183.592697 544.287109,181.873489 544.287109,179.785995 
	C550.521790,179.785995 556.582214,179.785995 563.174194,179.785995 
	C563.089539,181.535965 563.005005,183.282959 562.912476,185.196030 
	C560.900085,185.441650 559.132751,185.657349 557.261475,185.885742 
	C556.910095,188.917191 556.567078,191.876556 556.189026,195.272034 
z"/>
<path fill="#ECECEC" opacity="1.000000" stroke="none" 
	d="
M193.824585,181.320679 
	C193.408035,186.014679 193.014236,190.282730 192.585678,194.927414 
	C195.464127,195.057983 198.037857,195.174728 201.014572,195.309769 
	C200.871460,197.295471 200.747452,199.015930 200.607925,200.951859 
	C195.169373,200.951859 190.102020,200.951859 184.538574,200.951859 
	C185.117294,193.914703 185.682236,187.045288 186.343857,179.000244 
	C189.043411,179.681824 191.445374,180.288284 193.824585,181.320679 
z"/>
<path fill="#ECECEC" opacity="1.000000" stroke="none" 
	d="
M439.779114,182.796692 
	C440.206207,176.260101 444.884033,181.270874 447.466492,179.636871 
	C446.881622,186.653030 446.296753,193.669205 445.691559,200.929260 
	C443.170044,200.929260 440.915253,200.929260 438.103699,200.929260 
	C438.651520,195.005615 439.196075,189.117203 439.779114,182.796692 
z"/>
<path fill="#EBEBEB" opacity="1.000000" stroke="none" 
	d="
M693.493103,200.651459 
	C691.047119,200.997147 688.900696,200.997147 686.172668,200.997147 
	C686.799377,193.900848 687.420227,186.870544 688.061584,179.608185 
	C690.530518,179.608185 692.800049,179.608185 695.529724,179.608185 
	C694.948669,186.531204 694.370667,193.418472 693.493103,200.651459 
z"/>
<path fill="#ECECEC" opacity="1.000000" stroke="none" 
	d="
M540.932983,181.313599 
	C540.319397,188.014999 539.723511,194.275665 539.097107,200.858139 
	C536.769043,200.858139 534.555847,200.858139 531.713562,200.858139 
	C532.264526,193.924088 532.820190,186.930206 533.465515,178.808350 
	C536.214294,179.566483 538.582520,180.219666 540.932983,181.313599 
z"/>
<path fill="#EBEBEB" opacity="1.000000" stroke="none" 
	d="
M495.641846,189.523132 
	C495.938812,185.961319 496.178925,182.856873 496.432922,179.573380 
	C498.998444,179.573380 501.237152,179.573380 504.022064,179.573380 
	C503.379059,186.788147 502.755096,193.789322 502.115082,200.970673 
	C499.591461,200.970673 497.357422,200.970673 494.671478,200.970673 
	C494.989685,197.142471 495.287323,193.561478 495.641846,189.523132 
z"/>
<path fill="#DFDFDF" opacity="1.000000" stroke="none" 
	d="
M421.065277,203.099579 
	C419.170715,203.336075 417.571198,203.336075 415.585876,203.336075 
	C416.110931,200.092422 416.576111,197.218750 417.046936,194.310364 
	C419.328247,194.310364 421.449463,194.310364 424.579559,194.310364 
	C423.381714,197.492722 422.371002,200.177902 421.065277,203.099579 
z"/>
<path fill="#080808" opacity="1.000000" stroke="none" 
	d="
M654.990234,186.335876 
	C655.509399,187.399384 655.977417,188.154404 656.012756,188.929169 
	C656.151550,191.974533 655.425842,194.984955 651.885498,194.941696 
	C650.807007,194.928513 648.805664,191.706467 648.918091,190.070129 
	C649.123779,187.073044 650.502197,184.033630 654.990234,186.335876 
z"/>
<path fill="#111111" opacity="1.000000" stroke="none" 
	d="
M244.794693,188.071945 
	C246.571701,187.049316 248.173828,186.370621 249.775955,185.691925 
	C250.437393,187.266052 251.903107,189.047363 251.564011,190.363754 
	C251.102753,192.154282 249.573105,194.319061 247.943741,195.012466 
	C245.257675,196.155609 243.739868,193.064606 244.794693,188.071945 
z"/>
<path fill="#020202" opacity="1.000000" stroke="none" 
	d="
M408.843811,187.138184 
	C408.087463,186.993042 407.552216,186.566696 407.016968,186.140350 
	C407.615906,186.089554 408.214844,186.038757 409.145935,186.130402 
	C409.340332,186.467560 409.202637,186.662262 408.843811,187.138184 
z"/>
</svg>